<?xml version="1.0" ?>
<!-- Uploaded to: SVG Repo, www.svgrepo.com, Generator: SVG Repo Mixer Tools -->
<svg width="800px" height="800px" viewBox="0 0 20 20" version="1.1" xmlns="http://www.w3.org/2000/svg">
<g id="layer1">
<path d="M 4,0 V 18 H 17 V 5 4 L 13,0 h -1 z m 1,1 h 7 v 3 1 h 4 V 17 H 5 Z M 13,1.3535156 15.646484,4 H 13 Z M 2,2 v 17 1 H 3 15 V 19 H 3 V 2 Z m 4,0 v 4 h 4 V 2 Z M 7,3 H 9 V 5 H 7 Z M 6,7 v 1 h 9 V 7 Z m 0,2 v 1 h 9 V 9 Z m 0,2 v 1 h 9 v -1 z m 0,2 v 1 h 9 v -1 z m 0,2 v 1 h 9 v -1 z" style="fill:#222222; fill-opacity:1; stroke:none; stroke-width:0px;"/>
</g>
</svg>