<?xml version="1.0" encoding="utf-8"?><!-- Uploaded to: SVG Repo, www.svgrepo.com, Generator: SVG Repo Mixer Tools -->
<svg fill="#000000" width="800px" height="800px" viewBox="0 0 24 24" id="file-error-left" data-name="Flat Color" xmlns="http://www.w3.org/2000/svg" class="icon flat-color"><path id="primary" d="M6.79,6.29l4-4A1,1,0,0,1,11.5,2h9a2,2,0,0,1,2,2V20a2,2,0,0,1-2,2H8.5a2,2,0,0,1-2-2V7A1,1,0,0,1,6.79,6.29Z" style="fill: rgb(0, 0, 0);"></path><path id="secondary" d="M3.5,19A1.5,1.5,0,1,1,2,20.5,1.5,1.5,0,0,1,3.5,19Zm0-2a1,1,0,0,0,1-1V13a1,1,0,0,0-2,0v3A1,1,0,0,0,3.5,17Z" style="fill: rgb(44, 169, 188);"></path></svg>